<svg width="20" height="18" viewBox="0 0 20 18" fill="none" xmlns="http://www.w3.org/2000/svg">
<path d="M17.0586 9.882C17.0966 9.594 17.1251 9.306 17.1251 9C17.1251 8.694 17.0966 8.406 17.0586 8.118L19.0631 6.633C19.2436 6.498 19.2911 6.255 19.1771 6.057L17.2771 2.943C17.1631 2.745 16.9066 2.673 16.6976 2.745L14.3321 3.645C13.8381 3.285 13.3061 2.988 12.7266 2.763L12.3656 0.378C12.3371 0.162 12.1376 0 11.9001 0H8.10007C7.86257 0 7.66307 0.162 7.63457 0.378L7.27357 2.763C6.69407 2.988 6.16207 3.294 5.66807 3.645L3.30257 2.745C3.08407 2.664 2.83707 2.745 2.72307 2.943L0.823067 6.057C0.699567 6.255 0.756567 6.498 0.937067 6.633L2.94157 8.118C2.90357 8.406 2.87507 8.703 2.87507 9C2.87507 9.297 2.90357 9.594 2.94157 9.882L0.937067 11.367C0.756567 11.502 0.709067 11.745 0.823067 11.943L2.72307 15.057C2.83707 15.255 3.09357 15.327 3.30257 15.255L5.66807 14.355C6.16207 14.715 6.69407 15.012 7.27357 15.237L7.63457 17.622C7.66307 17.838 7.86257 18 8.10007 18H11.9001C12.1376 18 12.3371 17.838 12.3656 17.622L12.7266 15.237C13.3061 15.012 13.8381 14.706 14.3321 14.355L16.6976 15.255C16.9161 15.336 17.1631 15.255 17.2771 15.057L19.1771 11.943C19.2911 11.745 19.2436 11.502 19.0631 11.367L17.0586 9.882ZM10.0001 12.15C8.16657 12.15 6.67507 10.737 6.67507 9C6.67507 7.263 8.16657 5.85 10.0001 5.85C11.8336 5.85 13.3251 7.263 13.3251 9C13.3251 10.737 11.8336 12.15 10.0001 12.15Z" fill="#78909C"/>
</svg>
